<svg xmlns="http://www.w3.org/2000/svg" version="1.1" viewBox="-5.0 -10.0 110.0 135.0">
 <path d="m12.344 21.688h16.766l4.1211-9.8203c0.48047-1.1484 1.5938-1.8398 2.7656-1.8398h28.012c1.2773 0 2.3711 0.80078 2.8008 1.9258l4.082 9.7344h16.766c4.7031 0 8.543 3.8516 8.543 8.543v51.199c0 4.7031-3.8398 8.543-8.543 8.543h-75.312c-2.3398 0-4.4766-0.96094-6.0273-2.5117l-0.007812 0.007812c-1.5469-1.5508-2.5078-3.6875-2.5078-6.0391v-51.199c0-4.7031 3.8359-8.543 8.543-8.543zm23.27 0h28.773l-2.375-5.6602h-24.023zm14.387 13.207c-11.562 0-20.938 9.375-20.938 20.938 0 18.594 22.586 27.961 35.742 14.805 13.156-13.16 3.7891-35.742-14.805-35.742zm10.562 10.375c-9.3867-9.3867-25.5-2.7031-25.5 10.562s16.113 19.949 25.5 10.562c5.832-5.8359 5.832-15.293 0-21.125zm27.094-17.582h-75.312c-1.3906 0-2.543 1.1484-2.543 2.543v51.199c0 0.69531 0.28516 1.332 0.75 1.793l-0.007812 0.007813 1.8008 0.74219h75.316c1.3906 0 2.543-1.1523 2.543-2.543l-0.003906-51.199c0-1.4219-1.1641-2.543-2.543-2.543z" fill-rule="evenodd"/>
<text x="0.0" y="117.5" font-size="5.0" font-weight="bold" font-family="Arbeit Regular, Helvetica, Arial-Unicode, Arial, Sans-serif" fill="#000000">Created by Melisa Lutfiani</text><text x="0.0" y="122.5" font-size="5.0" font-weight="bold" font-family="Arbeit Regular, Helvetica, Arial-Unicode, Arial, Sans-serif" fill="#000000">from Noun Project</text></svg>